<svg enable-background="new 0 0 128 128" viewBox="0 0 128 128" xmlns="http://www.w3.org/2000/svg" xmlns:xlink="http://www.w3.org/1999/xlink"><radialGradient id="a" cx="64.1" cy="-1613.8" gradientTransform="matrix(1 0 0 -1 0 -1562)" gradientUnits="userSpaceOnUse" r="40.485"><stop offset=".4158" stop-color="#fdd835"/><stop offset="1" stop-color="#f9a825"/></radialGradient><radialGradient id="b" cx="72.004" cy="-1582.2" gradientTransform="matrix(1 0 0 -1 0 -1562)" gradientUnits="userSpaceOnUse" r="14.373"><stop offset=".3991" stop-color="#fdd835"/><stop offset=".5153" stop-color="#fdd534"/><stop offset="1" stop-color="#f9a825"/></radialGradient><radialGradient id="c" cx="63.774" cy="-1618.1" gradientTransform="matrix(1 0 0 -1 0 -1562)" gradientUnits="userSpaceOnUse" r="50.595"><stop offset=".5095" stop-color="#e04c74"/><stop offset="1" stop-color="#da2656"/></radialGradient><clipPath id="d"><path d="m113.8 120c-7.2 1.3-7.5 2.2-49.8 2.2s-43.1-.8-50-2.2-10-4.5-10-10c0 0-4.2-65.8 59.9-65.8s59.9 65.8 59.9 65.8c0 5.5-2.8 8.7-10 10z"/></clipPath><radialGradient id="e" cx="1186" cy="-4682.7" gradientTransform="matrix(.7803 0 0 -.5516 -861.46 -2510.7)" gradientUnits="userSpaceOnUse" r="69.492"><stop offset=".5256" stop-color="#e87997"/><stop offset=".8872" stop-color="#e04c74"/></radialGradient><g fill="#f9a825"><path d="m52.6 28h8.3v16.9h-8.3z" transform="matrix(.9579 -.2872 .2872 .9579 -8.077 17.834)"/><circle cx="53.5" cy="25.5" r="9.7"/></g><path d="m89.8 41.3c-6-2-8.4-3.1-14.9-3.6l1.8-6.1-8-2.4-2.5 8.3c-6-.5-15.8-.2-23.5 2.5-9.6 3.5-19.5 7.4-25.7 15.8-2.9 4-5.2 9-5.5 14.1-.4 5.7 8.3 5.8 8.9.3.1-.6.2-1.3.4-1.9.6-2.3 14.9-20.5 43.2-20.5s43.5 21.5 43.7 22.3c.5 5.7 9.4 5.7 9-.1-1-14.4-14.3-24.6-26.9-28.7z" fill="url(#a)"/><circle cx="74.6" cy="25.5" fill="url(#b)" r="9.7"/><path d="m74.5 17.8c.8 0 1.5.1 2.2.3 4.1 1.2 6.4 5.5 5.2 9.6-.9 3-3.5 5.1-6.6 5.5-.8.1-1.5.6-1.7 1.4l-.8 2.5c-.2.6-.1 1.2.3 1.7s.9.8 1.5.9c5.2.4 7.6 1.2 11.8 2.6.8.3 1.7.6 2.6.9 6.5 2.2 12.5 5.7 17 10.1 5.1 5 8.1 10.8 8.5 16.9 0 .7-.1 1.2-.4 1.5-.4.4-1 .7-1.8.7-1 0-2.7-.5-2.8-2.4v-.3-.2c-.2-.7-.3-1.5-.5-2.2-.8-2.7-1.8-4.7-3.6-7.2-4.5-6.3-11.9-10.8-22.1-13.3-4.8-1.2-9.9-1.9-15.1-2.2h-.1c-.6 0-1.2.3-1.6.8l-2.7-1c-.2-.1-.4-.3-.6-.3-8.1-.1-16.2 1.4-23.2 3.7-6 2-14.1 6.1-18.7 14.1-1.2 2.1-1.8 3.3-2.4 5.8l-.4 2v.1c-.2 1.7-1.6 2.2-2.8 2.2-.7 0-1.4-.2-1.8-.7-.3-.4-.5-.9-.4-1.6.3-4.2 2.1-8.8 5.2-13 5.7-7.8 14.9-11.6 24.7-15.1 2.8-1 6-1.7 9.6-2.2.6-.1 1.1-.4 1.4-.9s.4-1.1.2-1.7l-.8-2.6c-.2-.7-.8-1.3-1.6-1.4-2.9-.5-5.4-2.6-6.2-5.4-1.2-4.1 1.1-8.4 5.2-9.6.7-.2 1.5-.3 2.2-.3 3.4 0 6.4 2.3 7.4 5.5.8 2.8 0 5.9-2.2 7.9-.6.5-.8 1.3-.6 2.1l1.4 4.5c.2.8 1 1.4 1.9 1.4 1.7 0 3.3.1 4.7.2h.2c.9 0 1.7-.6 1.9-1.4l1.5-5c.2-.7 0-1.5-.5-2-2-2-2.8-5-2-7.7 1-2.9 4.1-5.2 7.4-5.2m0-2c-4.2 0-8 2.7-9.3 6.9-1.1 3.6 0 7.2 2.5 9.7l-1.5 5c-1.4-.1-3.1-.2-4.9-.2l-1.4-4.5c2.7-2.4 3.9-6.3 2.8-10-1.3-4.2-5.1-6.9-9.3-6.9-.9 0-1.9.1-2.8.4-5.1 1.5-8 6.9-6.5 12.1 1.1 3.7 4.2 6.2 7.8 6.8l.8 2.6c-3.4.4-6.9 1.1-10.1 2.2-9.6 3.5-19.4 7.4-25.6 15.8-2.9 4-5.2 9-5.5 14.1-.2 2.9 2 4.3 4.2 4.3s4.4-1.3 4.7-4c.1-.6.2-1.3.4-1.9.6-2.3 1-3.3 2.2-5.3 3.8-6.6 10.5-10.8 17.6-13.1s14.9-3.5 22.7-3.5l4.5 1.3.4-1.2c5.1.3 10 1 14.7 2.1 8 1.9 16 5.6 20.9 12.5 1.7 2.4 2.6 4.2 3.3 6.6.2.8.4 1.5.5 2.3.2 2.8 2.6 4.2 4.8 4.2s4.4-1.4 4.2-4.3c-1-14.4-14.3-24.6-26.9-28.7-6-2-8.4-3.1-14.9-3.6l.8-2.5c3.8-.4 7.1-3 8.2-6.9 1.5-5.1-1.4-10.5-6.5-12.1-.9-.1-1.8-.2-2.8-.2z" fill="#424242" opacity=".2"/><path d="m113.8 120c-7.2 1.3-7.5 2.2-49.8 2.2s-43.1-.8-50-2.2-10-4.5-10-10c0 0-4.2-65.8 59.9-65.8s59.9 65.8 59.9 65.8c0 5.5-2.8 8.7-10 10z" fill="url(#c)"/><path clip-path="url(#d)" d="m92.9 122h-57.9c-4.3 0-23.8-9.9-23.8-28.8s7.5-49 52.7-49 52.8 29.4 52.8 49.1-19.5 28.7-23.8 28.7z" fill="url(#e)"/><g fill="#e04c74"><path d="m50.6 64.3c-1.7 5.6-4.2 5-4.8 4.8s-3.1-1.1-1.4-6.7 7.7-14.3 7.7-14.3.2 10.6-1.5 16.2z"/><path d="m77.4 63.9c1.7 5.6 4.2 5 4.8 4.8s3.1-1.1 1.4-6.7-7.7-14.3-7.7-14.3-.2 10.6 1.5 16.2z"/><path d="m68.7 70.2c-.1 8.4-3.9 8.5-4.8 8.5s-4.7-.3-4.5-8.7 5-22.8 5-22.8 4.4 14.6 4.3 23z"/></g><path d="m64 47.2c1.1 0 5.3.1 5.7.1 12.6.8 22.7 4.2 29.9 10.3l.1.1c23 17.6 21.2 51.8 21.1 52.1v.2c0 3.6-1.2 5.7-7.6 7.1-4.4.9-16.5 2.1-48.7 2.1-8.7 0-16.3-.1-21.3-.1h-4.8c-6.6 0-19.4-1.2-23.8-2-6.3-1.2-7.6-3.7-7.6-7v-.2c0-.4-2.1-37.4 24.2-54.2h.1c6.8-4.7 15.7-7.4 26.6-8.1.4-.2 5.2-.4 6.1-.4m0-3c-1 0-6.1.2-6.4.2-12.2.8-21.3 4-28.1 8.6-27.9 18.1-25.4 57-25.4 57 0 5.5 3.1 8.7 10 10 4.6.9 17.7 2.1 24.4 2.1 2.7 0 13.4.2 26.1.2 18.4 0 41-.4 49.3-2.2 7.1-1.5 10-4.5 10-10.1 0 0 2.3-35.9-22.3-54.7-7-5.9-17.2-10.1-31.7-11-.1.1-4.7-.1-5.9-.1z" fill="#424242" opacity=".2"/></svg>